<svg id="visual" viewBox="0 0 960 300" width="960" height="300" xmlns="http://www.w3.org/2000/svg" xmlns:xlink="http://www.w3.org/1999/xlink" version="1.1"><rect x="0" y="0" width="960" height="300" fill="#ffc0cb"></rect><path d="M0 124L22.8 123.7C45.7 123.3 91.3 122.7 137 123.7C182.7 124.7 228.3 127.3 274 127.7C319.7 128 365.3 126 411.2 122.3C457 118.7 503 113.3 548.8 109.5C594.7 105.7 640.3 103.3 686 98.5C731.7 93.7 777.3 86.3 823 90.2C868.7 94 914.3 109 937.2 116.5L960 124L960 301L937.2 301C914.3 301 868.7 301 823 301C777.3 301 731.7 301 686 301C640.3 301 594.7 301 548.8 301C503 301 457 301 411.2 301C365.3 301 319.7 301 274 301C228.3 301 182.7 301 137 301C91.3 301 45.7 301 22.8 301L0 301Z" fill="#d4a5be"></path><path d="M0 119L22.8 125.5C45.7 132 91.3 145 137 149.2C182.7 153.3 228.3 148.7 274 139.7C319.7 130.7 365.3 117.3 411.2 114.8C457 112.3 503 120.7 548.8 119.7C594.7 118.7 640.3 108.3 686 113.7C731.7 119 777.3 140 823 141C868.7 142 914.3 123 937.2 113.5L960 104L960 301L937.2 301C914.3 301 868.7 301 823 301C777.3 301 731.7 301 686 301C640.3 301 594.7 301 548.8 301C503 301 457 301 411.2 301C365.3 301 319.7 301 274 301C228.3 301 182.7 301 137 301C91.3 301 45.7 301 22.8 301L0 301Z" fill="#bd99b6"></path><path d="M0 146L22.8 142C45.7 138 91.3 130 137 125.7C182.7 121.3 228.3 120.7 274 128.3C319.7 136 365.3 152 411.2 152C457 152 503 136 548.8 132C594.7 128 640.3 136 686 145.2C731.7 154.3 777.3 164.7 823 162.5C868.7 160.3 914.3 145.7 937.2 138.3L960 131L960 301L937.2 301C914.3 301 868.7 301 823 301C777.3 301 731.7 301 686 301C640.3 301 594.7 301 548.8 301C503 301 457 301 411.2 301C365.3 301 319.7 301 274 301C228.3 301 182.7 301 137 301C91.3 301 45.7 301 22.8 301L0 301Z" fill="#a78dac"></path><path d="M0 189L22.8 185.5C45.7 182 91.3 175 137 172.2C182.7 169.3 228.3 170.7 274 171C319.7 171.3 365.3 170.7 411.2 165.8C457 161 503 152 548.8 149.3C594.7 146.7 640.3 150.3 686 153C731.7 155.7 777.3 157.3 823 162.5C868.7 167.7 914.3 176.3 937.2 180.7L960 185L960 301L937.2 301C914.3 301 868.7 301 823 301C777.3 301 731.7 301 686 301C640.3 301 594.7 301 548.8 301C503 301 457 301 411.2 301C365.3 301 319.7 301 274 301C228.3 301 182.7 301 137 301C91.3 301 45.7 301 22.8 301L0 301Z" fill="#9081a1"></path><path d="M0 216L22.8 209.8C45.7 203.7 91.3 191.3 137 191.2C182.7 191 228.3 203 274 205C319.7 207 365.3 199 411.2 190.7C457 182.3 503 173.7 548.8 173.7C594.7 173.7 640.3 182.3 686 185.5C731.7 188.7 777.3 186.3 823 188.3C868.7 190.3 914.3 196.7 937.2 199.8L960 203L960 301L937.2 301C914.3 301 868.7 301 823 301C777.3 301 731.7 301 686 301C640.3 301 594.7 301 548.8 301C503 301 457 301 411.2 301C365.3 301 319.7 301 274 301C228.3 301 182.7 301 137 301C91.3 301 45.7 301 22.8 301L0 301Z" fill="#7a7694"></path><path d="M0 210L22.8 209.7C45.7 209.3 91.3 208.7 137 207.2C182.7 205.7 228.3 203.3 274 202.3C319.7 201.3 365.3 201.7 411.2 207C457 212.3 503 222.7 548.8 220.5C594.7 218.3 640.3 203.7 686 200.5C731.7 197.3 777.3 205.7 823 205.5C868.7 205.3 914.3 196.7 937.2 192.3L960 188L960 301L937.2 301C914.3 301 868.7 301 823 301C777.3 301 731.7 301 686 301C640.3 301 594.7 301 548.8 301C503 301 457 301 411.2 301C365.3 301 319.7 301 274 301C228.3 301 182.7 301 137 301C91.3 301 45.7 301 22.8 301L0 301Z" fill="#656b86"></path><path d="M0 224L22.8 227.5C45.7 231 91.3 238 137 241.2C182.7 244.3 228.3 243.7 274 238.3C319.7 233 365.3 223 411.2 223.3C457 223.7 503 234.3 548.8 238C594.7 241.7 640.3 238.3 686 236.3C731.7 234.3 777.3 233.7 823 233.7C868.7 233.7 914.3 234.3 937.2 234.7L960 235L960 301L937.2 301C914.3 301 868.7 301 823 301C777.3 301 731.7 301 686 301C640.3 301 594.7 301 548.8 301C503 301 457 301 411.2 301C365.3 301 319.7 301 274 301C228.3 301 182.7 301 137 301C91.3 301 45.7 301 22.8 301L0 301Z" fill="#515f78"></path><path d="M0 268L22.8 268C45.7 268 91.3 268 137 267.2C182.7 266.3 228.3 264.7 274 263.7C319.7 262.7 365.3 262.3 411.2 260.2C457 258 503 254 548.8 253.5C594.7 253 640.3 256 686 259C731.7 262 777.3 265 823 262.7C868.7 260.3 914.3 252.7 937.2 248.8L960 245L960 301L937.2 301C914.3 301 868.7 301 823 301C777.3 301 731.7 301 686 301C640.3 301 594.7 301 548.8 301C503 301 457 301 411.2 301C365.3 301 319.7 301 274 301C228.3 301 182.7 301 137 301C91.3 301 45.7 301 22.8 301L0 301Z" fill="#3f5468"></path><path d="M0 284L22.8 284.2C45.7 284.3 91.3 284.7 137 281.8C182.7 279 228.3 273 274 269.2C319.7 265.3 365.3 263.7 411.2 265C457 266.3 503 270.7 548.8 270.7C594.7 270.7 640.3 266.3 686 264.8C731.7 263.3 777.3 264.7 823 266.7C868.7 268.7 914.3 271.3 937.2 272.7L960 274L960 301L937.2 301C914.3 301 868.7 301 823 301C777.3 301 731.7 301 686 301C640.3 301 594.7 301 548.8 301C503 301 457 301 411.2 301C365.3 301 319.7 301 274 301C228.3 301 182.7 301 137 301C91.3 301 45.7 301 22.8 301L0 301Z" fill="#2f4858"></path></svg>