<svg id="visual" viewBox="0 0 960 300" width="960" height="300" xmlns="http://www.w3.org/2000/svg" xmlns:xlink="http://www.w3.org/1999/xlink" version="1.1"><rect x="0" y="0" width="960" height="300" fill="#ffc0cb"></rect><path d="M0 174L22.8 174.3C45.7 174.7 91.3 175.3 137 174.3C182.7 173.3 228.3 170.7 274 170.3C319.7 170 365.3 172 411.2 175.7C457 179.3 503 184.7 548.8 188.5C594.7 192.3 640.3 194.7 686 199.5C731.7 204.3 777.3 211.7 823 207.8C868.7 204 914.3 189 937.2 181.5L960 174L960 0L937.2 0C914.3 0 868.7 0 823 0C777.3 0 731.7 0 686 0C640.3 0 594.7 0 548.8 0C503 0 457 0 411.2 0C365.3 0 319.7 0 274 0C228.3 0 182.7 0 137 0C91.3 0 45.7 0 22.8 0L0 0Z" fill="#d4a5be"></path><path d="M0 179L22.8 172.5C45.7 166 91.3 153 137 148.8C182.7 144.7 228.3 149.3 274 158.3C319.7 167.3 365.3 180.7 411.2 183.2C457 185.7 503 177.3 548.8 178.3C594.7 179.3 640.3 189.7 686 184.3C731.7 179 777.3 158 823 157C868.7 156 914.3 175 937.2 184.5L960 194L960 0L937.2 0C914.3 0 868.7 0 823 0C777.3 0 731.7 0 686 0C640.3 0 594.7 0 548.8 0C503 0 457 0 411.2 0C365.3 0 319.7 0 274 0C228.3 0 182.7 0 137 0C91.3 0 45.7 0 22.8 0L0 0Z" fill="#bd99b6"></path><path d="M0 152L22.8 156C45.7 160 91.3 168 137 172.3C182.7 176.7 228.3 177.3 274 169.7C319.7 162 365.3 146 411.2 146C457 146 503 162 548.8 166C594.7 170 640.3 162 686 152.8C731.7 143.7 777.3 133.3 823 135.5C868.7 137.7 914.3 152.3 937.2 159.7L960 167L960 0L937.2 0C914.3 0 868.7 0 823 0C777.3 0 731.7 0 686 0C640.3 0 594.7 0 548.8 0C503 0 457 0 411.2 0C365.3 0 319.7 0 274 0C228.3 0 182.7 0 137 0C91.3 0 45.7 0 22.8 0L0 0Z" fill="#a78dac"></path><path d="M0 109L22.8 112.5C45.7 116 91.3 123 137 125.8C182.7 128.7 228.3 127.3 274 127C319.7 126.7 365.3 127.3 411.2 132.2C457 137 503 146 548.8 148.7C594.7 151.3 640.3 147.7 686 145C731.7 142.3 777.3 140.7 823 135.5C868.7 130.3 914.3 121.7 937.2 117.3L960 113L960 0L937.2 0C914.3 0 868.7 0 823 0C777.3 0 731.7 0 686 0C640.3 0 594.7 0 548.8 0C503 0 457 0 411.2 0C365.3 0 319.7 0 274 0C228.3 0 182.7 0 137 0C91.3 0 45.7 0 22.8 0L0 0Z" fill="#9081a1"></path><path d="M0 82L22.8 88.2C45.7 94.3 91.3 106.7 137 106.8C182.7 107 228.3 95 274 93C319.7 91 365.3 99 411.2 107.3C457 115.7 503 124.3 548.8 124.3C594.7 124.3 640.3 115.7 686 112.5C731.7 109.3 777.3 111.7 823 109.7C868.7 107.7 914.3 101.3 937.2 98.2L960 95L960 0L937.2 0C914.3 0 868.7 0 823 0C777.3 0 731.7 0 686 0C640.3 0 594.7 0 548.8 0C503 0 457 0 411.2 0C365.3 0 319.7 0 274 0C228.3 0 182.7 0 137 0C91.3 0 45.7 0 22.8 0L0 0Z" fill="#7a7694"></path><path d="M0 88L22.8 88.3C45.7 88.7 91.3 89.3 137 90.8C182.7 92.3 228.3 94.7 274 95.7C319.7 96.7 365.3 96.3 411.2 91C457 85.7 503 75.3 548.8 77.5C594.7 79.7 640.3 94.3 686 97.5C731.7 100.7 777.3 92.3 823 92.5C868.7 92.7 914.3 101.3 937.2 105.7L960 110L960 0L937.2 0C914.3 0 868.7 0 823 0C777.3 0 731.7 0 686 0C640.3 0 594.7 0 548.8 0C503 0 457 0 411.2 0C365.3 0 319.7 0 274 0C228.3 0 182.7 0 137 0C91.3 0 45.7 0 22.8 0L0 0Z" fill="#656b86"></path><path d="M0 74L22.8 70.5C45.7 67 91.3 60 137 56.8C182.7 53.7 228.3 54.3 274 59.7C319.7 65 365.3 75 411.2 74.7C457 74.3 503 63.7 548.8 60C594.7 56.3 640.3 59.7 686 61.7C731.7 63.7 777.3 64.3 823 64.3C868.7 64.3 914.3 63.7 937.2 63.3L960 63L960 0L937.2 0C914.3 0 868.7 0 823 0C777.3 0 731.7 0 686 0C640.3 0 594.7 0 548.8 0C503 0 457 0 411.2 0C365.3 0 319.7 0 274 0C228.3 0 182.7 0 137 0C91.3 0 45.7 0 22.8 0L0 0Z" fill="#515f78"></path><path d="M0 30L22.8 30C45.7 30 91.3 30 137 30.8C182.7 31.7 228.3 33.3 274 34.3C319.7 35.3 365.3 35.7 411.2 37.8C457 40 503 44 548.8 44.5C594.7 45 640.3 42 686 39C731.7 36 777.3 33 823 35.3C868.7 37.7 914.3 45.3 937.2 49.2L960 53L960 0L937.2 0C914.3 0 868.7 0 823 0C777.3 0 731.7 0 686 0C640.3 0 594.7 0 548.8 0C503 0 457 0 411.2 0C365.3 0 319.7 0 274 0C228.3 0 182.7 0 137 0C91.3 0 45.7 0 22.8 0L0 0Z" fill="#3f5468"></path><path d="M0 14L22.8 13.8C45.7 13.7 91.3 13.3 137 16.2C182.7 19 228.3 25 274 28.8C319.7 32.7 365.3 34.3 411.2 33C457 31.7 503 27.3 548.8 27.3C594.7 27.3 640.3 31.7 686 33.2C731.7 34.7 777.3 33.3 823 31.3C868.7 29.3 914.3 26.7 937.2 25.3L960 24L960 0L937.2 0C914.3 0 868.7 0 823 0C777.3 0 731.7 0 686 0C640.3 0 594.7 0 548.8 0C503 0 457 0 411.2 0C365.3 0 319.7 0 274 0C228.3 0 182.7 0 137 0C91.3 0 45.7 0 22.8 0L0 0Z" fill="#2f4858"></path></svg>