<svg id="visual" viewBox="0 0 960 300" width="960" height="300" xmlns="http://www.w3.org/2000/svg" xmlns:xlink="http://www.w3.org/1999/xlink" version="1.1"><path d="M0 28L87 28L87 46L175 46L175 22L262 22L262 28L349 28L349 19L436 19L436 34L524 34L524 28L611 28L611 34L698 34L698 34L785 34L785 31L873 31L873 19L960 19L960 22L960 0L960 0L873 0L873 0L785 0L785 0L698 0L698 0L611 0L611 0L524 0L524 0L436 0L436 0L349 0L349 0L262 0L262 0L175 0L175 0L87 0L87 0L0 0Z" fill="#ffffff"></path><path d="M0 85L87 85L87 91L175 91L175 85L262 85L262 67L349 67L349 70L436 70L436 91L524 91L524 73L611 73L611 61L698 61L698 76L785 76L785 79L873 79L873 70L960 70L960 52L960 20L960 17L873 17L873 29L785 29L785 32L698 32L698 32L611 32L611 26L524 26L524 32L436 32L436 17L349 17L349 26L262 26L262 20L175 20L175 44L87 44L87 26L0 26Z" fill="#c6c6c6"></path><path d="M0 109L87 109L87 127L175 127L175 100L262 100L262 97L349 97L349 112L436 112L436 115L524 115L524 88L611 88L611 79L698 79L698 106L785 106L785 121L873 121L873 91L960 91L960 82L960 50L960 68L873 68L873 77L785 77L785 74L698 74L698 59L611 59L611 71L524 71L524 89L436 89L436 68L349 68L349 65L262 65L262 83L175 83L175 89L87 89L87 83L0 83Z" fill="#919191"></path><path d="M0 148L87 148L87 172L175 172L175 154L262 154L262 160L349 160L349 169L436 169L436 178L524 178L524 133L611 133L611 145L698 145L698 133L785 133L785 169L873 169L873 157L960 157L960 127L960 80L960 89L873 89L873 119L785 119L785 104L698 104L698 77L611 77L611 86L524 86L524 113L436 113L436 110L349 110L349 95L262 95L262 98L175 98L175 125L87 125L87 107L0 107Z" fill="#5e5e5e"></path><path d="M0 196L87 196L87 256L175 256L175 199L262 199L262 205L349 205L349 262L436 262L436 265L524 265L524 202L611 202L611 202L698 202L698 229L785 229L785 217L873 217L873 259L960 259L960 226L960 125L960 155L873 155L873 167L785 167L785 131L698 131L698 143L611 143L611 131L524 131L524 176L436 176L436 167L349 167L349 158L262 158L262 152L175 152L175 170L87 170L87 146L0 146Z" fill="#303030"></path><path d="M0 301L87 301L87 301L175 301L175 301L262 301L262 301L349 301L349 301L436 301L436 301L524 301L524 301L611 301L611 301L698 301L698 301L785 301L785 301L873 301L873 301L960 301L960 301L960 224L960 257L873 257L873 215L785 215L785 227L698 227L698 200L611 200L611 200L524 200L524 263L436 263L436 260L349 260L349 203L262 203L262 197L175 197L175 254L87 254L87 194L0 194Z" fill="#000000"></path></svg>